# xmcd
#
# Track frame offsets: 
#        150
#        16807
#        33687
#
# Disc length: 721 seconds
#
# Revision: 1
# Processed by: cddbd v1.5.2PL0 Copyright (c) Steve Scherf et al.
# Submitted via: ExactAudioCopy v1.3
#
DISCID=1b02cf03
DTITLE=Reel Big Fish - Favorite Noise [CD2]
DYEAR=2002
DGENRE=Ska Punk
TTITLE0=Hungry Like The Wolf
TTITLE1=Kiss Me Deadly
TTITLE2=There is Nothin' Like A Dame
EXTD=YEAR: 2002
EXTT0=
EXTT1=
EXTT2=
PLAYORDER=
